<svg xmlns="http://www.w3.org/2000/svg" viewBox="0 0 24 24" fill="#000000">
  <path d="M12 .5a12 12 0 0 0-3.79 23.39c.6.11.82-.26.82-.58v-2.03c-3.34.73-4.04-1.42-4.04-1.42-.55-1.38-1.33-1.75-1.33-1.75-1.09-.74.08-.72.08-.72 1.2.09 1.84 1.22 1.84 1.22 1.07 1.8 2.8 1.28 3.48.98.11-.76.42-1.28.76-1.58-2.67-.3-5.48-1.32-5.48-5.86 0-1.29.47-2.35 1.23-3.18-.12-.3-.53-1.52.12-3.16 0 0 1-.32 3.3 1.21a11.6 11.6 0 0 1 6 0c2.29-1.53 3.29-1.21 3.29-1.21.66 1.64.25 2.86.12 3.16.77.83 1.23 1.89 1.23 3.18 0 4.55-2.81 5.56-5.49 5.86.43.37.82 1.1.82 2.22v3.29c0 .32.21.69.83.58A12 12 0 0 0 12 .5Z"/>
</svg>
